<svg xmlns="http://www.w3.org/2000/svg" xmlns:xlink="http://www.w3.org/1999/xlink" version="1.1" x="0px" y="0px" viewBox="0 0 100 125" enable-background="new 0 0 100 100" xml:space="preserve"><g><circle cx="28.4" cy="50.6" r="2.5"/><circle cx="64.6" cy="55.1" r="5"/><path d="M44.3,63.3c-0.5-1.4-1.3-2.7-2.4-3.8c-3.9-3.9-10.2-3.9-14.1,0c-0.8,0.8-1.5,1.8-1.9,2.8c-3.4,0.1-6,0.2-7.9,0.4   C23,75.5,35.5,84.5,50,84.5c13.3,0,24.8-7.5,30.6-18.5c-2.3,0.2-5.3,0.3-9.2,0.3C60.2,66.3,53,64.5,44.3,63.3z"/><path d="M98,16.2L83.8,2L72.1,13.7c-6.4-3.9-14-6.2-22.1-6.2C26.5,7.5,7.5,26.5,7.5,50c0,14.1,6.9,26.6,17.4,34.3   c-0.3,0.3-0.6,0.6-0.8,1l-2,3.5c-1,1.7-0.4,3.8,1.3,4.8c0.6,0.3,1.2,0.5,1.7,0.5c1.2,0,2.4-0.6,3-1.8l2-3.5c0.2-0.3,0.3-0.7,0.4-1   c5.8,3,12.4,4.7,19.5,4.7c6.4,0,12.5-1.4,17.9-4c0.1,0.1,0.1,0.3,0.2,0.4l1.9,3.4c0.6,1.1,1.8,1.8,3,1.8c0.6,0,1.2-0.2,1.7-0.5   c1.7-1,2.2-3.1,1.3-4.8l-1.9-3.4c-0.1-0.1-0.2-0.2-0.2-0.3C85.1,77.5,92.5,64.6,92.5,50c0-8.1-2.3-15.7-6.2-22.1L98,16.2z M88.5,50   c0,21.2-17.3,38.5-38.5,38.5S11.5,71.2,11.5,50c0-21.2,17.3-38.5,38.5-38.5c7.1,0,14,1.9,20,5.6l2.7,1.6l2.2-2.2l8.9-8.9l8.5,8.5   l-8.9,8.9l-2.2,2.2l1.6,2.7C86.6,36,88.5,42.9,88.5,50z"/></g><text x="0" y="115" fill="#000000" font-size="5px" font-weight="bold" font-family="'Helvetica Neue', Helvetica, Arial-Unicode, Arial, Sans-serif">Created by Griffin Mullins</text><text x="0" y="120" fill="#000000" font-size="5px" font-weight="bold" font-family="'Helvetica Neue', Helvetica, Arial-Unicode, Arial, Sans-serif">from the Noun Project</text></svg>