<svg xmlns:x="http://ns.adobe.com/Extensibility/1.0/" xmlns:i="http://ns.adobe.com/AdobeIllustrator/10.0/" xmlns:graph="http://ns.adobe.com/Graphs/1.0/" xmlns="http://www.w3.org/2000/svg" xmlns:xlink="http://www.w3.org/1999/xlink" version="1.1" x="0px" y="0px" viewBox="0 0 64 80" enable-background="new 0 0 64 64" xml:space="preserve"><metadata><sfw xmlns="http://ns.adobe.com/SaveForWeb/1.0/"><slices/><sliceSourceBounds y="-8160" x="-8165" width="16389" height="16384" bottomLeftOrigin="true"/></sfw></metadata><g><g><path d="M35.291,16.502c-2.509-2.509-5.845-3.891-9.394-3.891s-6.885,1.381-9.395,3.891c-5.18,5.181-5.18,13.609,0,18.789    c2.509,2.51,5.846,3.893,9.395,3.893s6.885-1.383,9.394-3.893c2.51-2.509,3.892-5.845,3.892-9.394S37.801,19.012,35.291,16.502z     M34.584,34.584c-2.32,2.321-5.405,3.6-8.687,3.6s-6.367-1.278-8.688-3.6c-4.79-4.79-4.79-12.584,0-17.375    c2.321-2.32,5.406-3.598,8.688-3.598s6.367,1.277,8.687,3.598s3.599,5.406,3.599,8.688S36.904,32.264,34.584,34.584z"/><path d="M54.88,51.159l-9.042-9.041c-0.873-0.874-2.316-0.979-3.329-0.315l-3.868-3.869c6.487-6.867,6.387-17.722-0.336-24.444    c-3.314-3.314-7.721-5.14-12.408-5.14s-9.093,1.825-12.408,5.14c-3.314,3.314-5.14,7.721-5.14,12.408s1.825,9.093,5.14,12.408    s7.721,5.14,12.408,5.14c4.519,0,8.767-1.711,12.037-4.804l3.866,3.867c-0.691,1.023-0.587,2.427,0.317,3.331l9.042,9.041    c0.497,0.497,1.158,0.771,1.86,0.771c0.703,0,1.363-0.273,1.86-0.771C55.905,53.854,55.905,52.186,54.88,51.159z M14.196,37.598    c-3.125-3.125-4.847-7.281-4.847-11.701s1.721-8.575,4.847-11.701S21.477,9.35,25.897,9.35s8.576,1.721,11.701,4.847    c6.451,6.452,6.451,16.95,0,23.401c-3.125,3.126-7.281,4.847-11.701,4.847S17.322,40.724,14.196,37.598z M54.173,54.173    c-0.615,0.615-1.689,0.615-2.307,0l-9.042-9.041c-0.636-0.636-0.636-1.67,0-2.307c0.309-0.308,0.718-0.478,1.153-0.478    s0.846,0.17,1.153,0.478l9.042,9.041C54.809,52.503,54.809,53.537,54.173,54.173z"/><path d="M34,29.5h-1.5V20c0-0.276-0.224-0.5-0.5-0.5s-0.5,0.224-0.5,0.5v9.5h-3V26c0-0.276-0.224-0.5-0.5-0.5s-0.5,0.224-0.5,0.5    v3.5h-3V22c0-0.276-0.224-0.5-0.5-0.5s-0.5,0.224-0.5,0.5v7.5h-3V26c0-0.276-0.224-0.5-0.5-0.5s-0.5,0.224-0.5,0.5v3.5H18    c-0.276,0-0.5,0.224-0.5,0.5s0.224,0.5,0.5,0.5h16c0.276,0,0.5-0.224,0.5-0.5S34.276,29.5,34,29.5z"/></g></g><text x="0" y="79" fill="#000000" font-size="5px" font-weight="bold" font-family="'Helvetica Neue', Helvetica, Arial-Unicode, Arial, Sans-serif">Created by Ralf Schmitzer</text><text x="0" y="84" fill="#000000" font-size="5px" font-weight="bold" font-family="'Helvetica Neue', Helvetica, Arial-Unicode, Arial, Sans-serif">from the Noun Project</text></svg>